<svg width="31" height="31" viewBox="0 0 31 31" fill="none" xmlns="http://www.w3.org/2000/svg">
<g clip-path="url(#clip0_307_358)">
<path d="M12.299 24.22C10.8951 24.6422 9.30821 24.9437 7.78217 24.9437C2.68596 24.9437 0 21.8075 0 17.1024C0 12.4281 2.68596 9.26123 7.78217 9.26123C9.30821 9.26123 10.8951 9.56311 12.299 9.98532L11.6885 13.1215C10.3153 12.6993 9.39983 12.5185 8.30113 12.5185C5.6764 12.5185 4.57767 14.4486 4.57767 17.1024C4.57767 19.7567 5.6764 21.6868 8.30113 21.6868C9.39983 21.6868 10.3153 21.5056 11.6885 21.0834L12.299 24.22Z" fill="#DF0024"/>
<path d="M18.9007 12.82V20.4502C18.9007 21.4758 19.6024 21.7773 20.2742 21.7773C20.5791 21.7773 21.2201 21.747 21.5862 21.6566V24.7023C20.7012 24.8533 19.1755 24.9437 18.4429 24.9437C15.2693 24.9437 14.5366 23.255 14.5366 20.8723V12.82V9.56275V7.59667L18.9007 5.34082V9.56275H21.5862V12.82H18.9007Z" fill="#DF0024"/>
<path d="M28.0647 12.82V20.4502C28.0647 21.4758 28.7665 21.7773 29.4383 21.7773C29.7432 21.7773 30.3842 21.747 30.7503 21.6566V24.7023C29.8652 24.8533 28.3392 24.9437 27.607 24.9437C24.4329 24.9437 23.7007 23.255 23.7007 20.8723V7.59667L28.0647 5.34082V9.56275H30.7503V12.82H28.0647Z" fill="#DF0024"/>
</g>
<defs>
<clipPath id="clip0_307_358">
<rect width="30.8125" height="30.8125" fill="white"/>
</clipPath>
</defs>
</svg>
