<svg width="43" height="15" viewBox="0 0 43 15" fill="none" xmlns="http://www.w3.org/2000/svg">
<path d="M40.1674 14.2309C40.6294 14.2294 41.0805 14.0902 41.4639 13.831C41.8473 13.5718 42.1457 13.2041 42.3214 12.7744C42.4972 12.3448 42.5424 11.8724 42.4513 11.4169C42.3603 10.9614 42.137 10.5433 41.8098 10.2153C41.4826 9.88734 41.0661 9.66423 40.6129 9.57415C40.1597 9.48407 39.6901 9.53107 39.2635 9.70921C38.8368 9.88736 38.4722 10.1887 38.2157 10.5751C37.9592 10.9615 37.8223 11.4156 37.8223 11.8802C37.8234 12.5047 38.0711 13.1031 38.5109 13.5439C38.9506 13.9847 39.5465 14.2318 40.1674 14.2309Z" fill="#FFD100"/>
<path d="M6.74534 6.65796V9.73366H9.29817C8.92516 10.3201 8.08418 10.6329 7.51403 10.6329C5.59244 10.6329 4.63159 9.53502 4.63159 7.31921C4.63159 4.87274 5.89963 3.62088 8.41721 3.62088C9.41683 3.62088 10.7234 3.87118 12.126 4.31444V0.635842C11.7222 0.462617 11.1079 0.327834 10.3196 0.192586C9.61494 0.0699577 8.90143 0.00554719 8.18628 0C5.68796 0 3.70879 0.674285 2.22944 2.02239C0.750089 3.37049 0 5.18168 0 7.47447C0 9.5739 0.576512 11.2305 1.72954 12.4444C2.88237 13.677 4.43892 14.2934 6.39917 14.2936C8.36723 14.2936 10.1755 13.2697 10.7586 11.9697L10.7461 14.062H13.593V6.65796H6.74534ZM15.014 14.0617V0.231029H19.434V10.4596H24.2572V14.0619L15.014 14.0617ZM25.87 13.7151V9.93984C26.6196 10.1706 27.3836 10.3509 28.157 10.4797C28.8986 10.6215 29.6509 10.6988 30.4056 10.7107C31.4816 10.7107 32.0392 10.4408 32.0392 9.95938C32.0392 9.65138 31.8663 9.49686 31.0783 9.32354L29.5408 8.97672C26.9081 8.37941 25.6783 7.05058 25.6783 4.79669C25.6783 3.31334 26.1974 2.13846 27.2158 1.27168C28.2329 0.423522 29.6556 0 31.4428 0C32.6725 0 34.5562 0.250297 35.7091 0.539875V4.14214C35.1132 3.98809 34.4026 3.83413 33.5378 3.69889C32.8645 3.58417 32.1837 3.51983 31.5009 3.50639C30.5594 3.50639 30.021 3.77633 30.021 4.25775C30.021 4.5463 30.2709 4.73954 30.7897 4.87432L32.5769 5.29785C35.1905 5.91442 36.401 7.26252 36.401 9.55494C36.401 11.0191 35.8627 12.1746 34.8058 13.0222C33.7489 13.8698 32.2882 14.2934 30.4243 14.2934C28.6564 14.2927 26.8693 14.0424 25.87 13.7151Z" fill="#061AB1"/>
</svg>
