<svg width="34" height="32" viewBox="0 0 34 32" fill="none" xmlns="http://www.w3.org/2000/svg">
<path d="M23.0161 13.2178H16.7346H10.4653V12.1852V11.1404H16.7346H23.0161V12.1852V13.2178Z" fill="#00457D"/>
<path d="M21.9607 3.37744C21.2 3.37744 20.4884 3.59612 19.8627 3.94843C19.2493 3.59612 18.5377 3.37744 17.7771 3.37744C17.409 3.37744 17.0532 3.42604 16.7097 3.52323C16.3784 3.43819 16.0472 3.37744 15.6914 3.37744C14.9308 3.37744 14.2314 3.59612 13.6057 3.94843C12.9923 3.59612 12.2685 3.37744 11.5078 3.37744C9.20132 3.37744 7.32422 5.2362 7.32422 7.52016V9.5976H9.42215V7.52016C9.42215 6.37818 10.3546 5.44273 11.5201 5.44273C11.7041 5.44273 11.8881 5.47917 12.0599 5.51562C11.7286 6.11091 11.5201 6.77909 11.5201 7.50801V9.58545H13.618V7.52016C13.618 6.37818 14.5504 5.44273 15.7159 5.44273V9.58545H17.8139V5.44273C18.9671 5.44273 19.9118 6.36603 19.9118 7.52016V9.5976H21.9607V7.52016C21.9607 6.79124 21.7521 6.12306 21.4208 5.52777C21.5926 5.47917 21.7766 5.45488 21.9607 5.45488C23.1139 5.45488 24.0586 6.37818 24.0586 7.53231V9.60975H26.1565V7.52016C26.1443 5.22405 24.2794 3.37744 21.9607 3.37744Z" fill="#00457D"/>
<path d="M17.1882 0.971899V0H16.2803V0.971899H15.2988V1.88305H16.2803V2.85495H17.1882V1.88305H18.182V0.971899H17.1882Z" fill="#00457D"/>
<path d="M27.1995 14.7607C27.1995 17.2148 26.3407 19.4623 24.9053 21.236C24.071 17.5307 20.7339 14.7607 16.7466 14.7607C14.2438 14.7607 11.9987 15.8541 10.4651 17.5792V14.7607H0C0 23.9209 7.49612 31.3438 16.7344 31.3438C25.9726 31.3438 33.4687 23.9209 33.4687 14.7729H27.1995V14.7607ZM2.25742 16.8382H8.36719V23.0583C8.36719 24.6741 8.84566 26.1806 9.65539 27.4683C5.72944 25.3058 2.91993 21.4183 2.25742 16.8382ZM16.7344 29.2663C13.2746 29.2663 10.4528 26.4843 10.4528 23.0462C10.4528 19.6081 13.2624 16.8382 16.7344 16.8382C20.2064 16.8382 23.0036 19.6202 23.0036 23.034C22.2921 23.5686 21.5191 24.0059 20.6849 24.3461C20.8198 23.933 20.918 23.5078 20.918 23.0462C20.918 20.7015 19.0409 18.9035 16.7344 18.9035C14.4279 18.9035 12.5508 20.7501 12.5508 23.0462C12.5508 25.3423 14.4156 27.1889 16.7344 27.1889C22.9546 27.1889 28.1196 22.706 29.1134 16.8382H31.2359C30.2298 23.8601 24.1078 29.2663 16.7344 29.2663ZM18.8323 23.0462C18.8323 24.1882 17.8999 25.1115 16.7466 25.1115C15.5934 25.1115 14.661 24.1882 14.661 23.0462C14.661 21.9042 15.5934 20.9809 16.7466 20.9809C17.8999 20.9809 18.8323 21.9042 18.8323 23.0462Z" fill="#00457D"/>
</svg>
