<svg width="93" height="8" viewBox="0 0 93 8" fill="none" xmlns="http://www.w3.org/2000/svg">
<g clip-path="url(#clip0_307_377)">
<path d="M56.2846 6.09181L57.8377 3.35873L58.3347 2.50258H62.5591C64.8577 2.50258 66.7836 2.50258 66.7836 2.50258C66.7836 2.50258 66.473 3.0953 66.1002 3.7868C65.7275 4.47831 65.4168 5.03809 65.4168 5.07102C65.4168 5.07102 66.2245 4.51123 67.2184 3.81973L68.9579 2.53551H73.3066C75.7295 2.53551 77.6553 2.53551 77.6553 2.53551C77.6553 2.53551 77.4068 3.12823 77.0962 3.85266C76.7856 4.57709 76.5371 5.16981 76.5371 5.16981C76.5371 5.16981 77.4068 4.57709 78.4629 3.85266L80.3888 2.53551H84.986C87.5331 2.53551 89.5832 2.53551 89.5832 2.56844C89.5832 2.60137 87.8437 3.81973 85.6693 5.30152L81.7555 8.00168H75.8537C72.6233 8.00168 69.9519 8.00168 69.9519 7.96875C69.9519 7.96875 70.2004 7.27725 70.4489 6.4211C70.6974 5.59788 70.9459 4.90638 70.9459 4.87345C70.9459 4.87345 70.2004 5.33445 69.3307 5.9601C68.4609 6.58574 67.5912 7.14553 67.4669 7.21139C66.9078 7.54068 65.9138 7.80411 65.1062 7.93582C64.7335 7.96875 64.0501 8.00168 60.012 8.00168H55.3527L56.2846 6.09181ZM47.5251 3.88559C48.1463 3.81973 48.3948 3.75387 48.7054 3.58923C49.016 3.42459 49.2024 3.19409 49.2645 2.96358C49.3267 2.70016 48.9539 2.50258 48.2084 2.43673C48.022 2.4038 46.8417 2.4038 45.475 2.4038H43.0521L42.6172 3.12823C42.4309 3.39166 42.3066 3.62216 42.1202 3.88559C42.1824 3.95145 46.8417 3.95145 47.5251 3.88559ZM31.994 7.93582C31.994 7.93582 32.8637 6.4211 33.8577 4.54416C35.1002 2.43673 35.8457 1.11958 35.9699 0.987862C36.2806 0.691503 36.8397 0.395145 37.4609 0.230501C38.3928 0 38.02 0 46.0962 0H53.3026L53.7996 0.0658574C55.4148 0.296358 56.4088 0.823218 56.7194 1.58058C56.8437 1.90987 56.8437 2.50258 56.5952 2.89773C56.4088 3.22701 56.0982 3.62216 55.7255 3.85266C54.7315 4.61002 52.9299 5.20274 50.8798 5.36738L50.1964 5.43324L51.6253 6.68453L53.0541 7.93582H48.2705C45.5992 7.93582 43.4249 7.93582 43.3627 7.93582C43.3006 7.93582 42.9279 7.57361 42.493 7.14553C42.0581 6.71746 41.6854 6.35524 41.6232 6.32231C41.5611 6.28939 41.499 6.32231 41.3748 6.55282C41.002 7.21139 40.008 7.70532 38.7655 7.86996C38.3307 7.93582 38.0822 7.93582 35.1623 7.93582C33.4228 7.96875 31.994 7.93582 31.994 7.93582ZM0 7.93582C0 7.93582 0.993988 6.12474 2.23647 3.95145L4.41082 0H10.2505H16.1523V0.0658574C16.1523 0.230501 16.5872 4.80759 16.5872 4.80759C16.5872 4.80759 17.7054 3.91852 19.01 2.8648C20.3146 1.81108 21.495 0.823218 21.6192 0.724432C22.0541 0.395145 22.7996 0.164644 23.6072 0.0329287C24.0421 0 24.3527 0 29.1984 0H34.2926L34.2305 0.0658574C34.2305 0.0987862 33.2365 1.87694 31.994 4.05023L29.8196 7.93582H25.6573C23.1102 7.93582 21.495 7.93582 21.495 7.90289C21.495 7.86996 21.9299 6.98089 22.4269 5.92717C22.986 4.84052 23.3587 3.98438 23.3587 3.95145C23.3587 3.95145 22.2405 4.84052 20.8737 5.92717L18.3888 7.93582H14.9098C12.6112 7.93582 11.3687 7.93582 11.3687 7.90289C11.3687 7.83704 10.7475 3.98438 10.7475 3.91852C10.7475 3.88559 10.3748 4.51123 9.93988 5.2686C9.50501 6.02596 9.07014 6.75039 9.00802 6.8821C8.75952 7.14553 8.01403 7.54068 7.51703 7.70532C6.70942 7.93582 6.52305 7.93582 3.10621 7.93582C1.36673 7.96875 0 7.93582 0 7.93582Z" fill="#003782"/>
<path d="M81.1344 1.81108C81.1344 1.74522 82.8739 0.691503 83.1845 0.559788C83.6815 0.362216 84.5512 0.131715 85.1103 0.0658574C85.4831 0.0329287 86.2286 0 89.2727 0C91.447 0 92.938 0 92.938 0.0329287C92.938 0.0329287 92.3167 0.461002 91.6334 0.922004L90.3288 1.81108H85.7316C83.1845 1.84401 81.1344 1.84401 81.1344 1.81108ZM69.7035 1.81108C69.7035 1.81108 70.3248 1.38301 71.0081 0.922004L72.2506 0.0329287H75.4189C78.4009 0.0329287 78.5873 0.0329287 78.5873 0.0987862C78.5873 0.131715 78.4009 0.52686 78.2145 0.954933C78.0282 1.38301 77.8418 1.77815 77.8418 1.81108C77.8418 1.87694 77.5933 1.87694 73.7416 1.87694C71.5051 1.84401 69.6414 1.84401 69.7035 1.81108ZM58.7075 1.77815C58.7075 1.74522 58.956 1.35008 59.2045 0.889075C59.453 0.428073 59.7015 0.0329287 59.7015 0.0329287C59.7015 0.0329287 61.5652 0.0329287 63.8638 0.0329287C66.1624 0.0329287 68.0262 0.0329287 68.0262 0.0658574C68.0262 0.0658574 67.7777 0.493931 67.5292 0.954933L67.0322 1.81108H62.8698C59.0803 1.84401 58.7075 1.84401 58.7075 1.77815Z" fill="#DB0023"/>
</g>
<defs>
<clipPath id="clip0_307_377">
<rect width="93" height="7.96875" fill="white"/>
</clipPath>
</defs>
</svg>
