<svg xmlns="http://www.w3.org/2000/svg" width="334" height="87" viewBox="0 0 334 87">
<g>
<path d="M 91.00 72.40 C91.00,72.73 88.78,73.00 86.06,73.00 C82.51,73.00 80.74,72.50 79.81,71.25 C78.32,69.26 71.28,62.91 65.76,58.59 C61.94,55.59 59.35,50.13 60.43,47.32 C60.93,46.01 62.20,45.82 67.65,46.26 C76.21,46.95 82.45,44.96 84.56,40.89 C87.79,34.64 82.04,30.80 69.89,31.09 C61.60,31.29 59.56,30.52 60.16,27.40 C60.63,24.99 63.82,24.22 73.80,24.10 C84.83,23.97 89.15,26.32 93.43,34.79 C95.03,37.95 95.00,38.28 92.87,42.55 C89.08,50.14 87.70,51.05 78.11,52.32 C77.34,52.42 76.23,53.27 75.64,54.20 C74.74,55.63 75.91,57.21 82.78,63.85 C87.30,68.22 91.00,72.07 91.00,72.40 ZM 238.00 30.00 C236.71,30.69 227.43,31.02 212.00,30.93 L 188.00 30.78 L 188.00 28.01 C188.00,25.98 188.60,25.07 190.25,24.63 C193.98,23.63 234.68,23.93 237.43,24.98 C240.50,26.14 240.77,28.52 238.00,30.00 ZM 251.26 68.75 C249.74,71.98 248.98,72.54 245.75,72.81 C241.09,73.20 240.93,71.91 244.81,65.29 C248.60,58.81 255.00,44.93 255.00,43.18 C255.00,41.31 258.49,36.01 259.50,36.33 C261.35,36.93 261.15,43.03 259.07,49.04 C256.63,56.09 256.51,57.87 258.42,58.61 C262.31,60.10 260.02,65.00 255.44,65.00 C253.62,65.00 252.58,65.93 251.26,68.75 ZM 157.46 70.31 L 156.81 72.90 L 141.85 73.20 C133.30,73.37 126.49,73.09 125.95,72.55 C124.56,71.16 124.79,66.01 126.25,65.92 C133.52,65.45 156.51,66.11 157.21,66.81 C157.70,67.30 157.82,68.88 157.46,70.31 ZM 157.33 29.83 C156.53,31.11 153.58,31.46 141.41,31.77 C133.20,31.98 126.15,31.81 125.74,31.41 C124.46,30.13 124.93,25.24 126.39,24.68 C127.15,24.39 131.09,24.28 135.14,24.43 C139.19,24.59 145.78,24.78 149.78,24.86 C157.45,25.01 159.52,26.37 157.33,29.83 ZM 142.19 48.50 L 141.78 52.00 L 134.64 51.97 C130.71,51.95 126.71,51.48 125.75,50.92 C123.74,49.75 123.43,45.97 125.20,44.20 C126.66,42.74 140.17,42.57 141.60,44.00 C142.15,44.55 142.41,46.57 142.19,48.50 ZM 205.50 70.50 C205.50,73.86 205.08,73.97 194.83,73.28 C188.18,72.84 186.50,71.44 187.98,67.56 C188.56,66.04 189.46,65.17 190.08,65.55 C190.68,65.92 194.39,66.51 198.33,66.86 C205.49,67.50 205.50,67.51 205.50,70.50 Z" fill="rgb(215,232,226)"/>
<path d="M 95.11 73.21 C96.00,74.86 95.46,75.00 88.26,75.00 C82.06,75.00 80.13,74.64 78.92,73.25 C78.09,72.29 73.29,67.68 68.27,63.00 C60.36,55.63 59.12,54.03 58.97,51.00 C58.96,50.83 58.95,50.66 58.95,50.49 C58.82,48.01 58.75,46.65 59.39,45.90 C60.17,45.00 62.01,45.00 66.07,44.99 C66.29,44.99 66.51,44.99 66.75,44.99 C79.45,44.99 84.87,42.61 83.62,37.61 C82.78,34.27 78.46,33.00 67.96,33.00 L 59.22 33.00 L 58.59 29.63 C57.39,23.22 57.82,23.00 71.71,23.00 C85.78,23.00 89.51,24.10 93.27,29.37 C96.52,33.93 96.43,43.26 93.09,47.71 C90.16,51.62 85.43,54.00 80.60,54.00 C76.75,54.00 76.03,55.13 78.57,57.21 C83.58,61.32 94.30,71.68 95.11,73.21 ZM 91.00 72.40 C91.00,72.07 87.30,68.22 82.78,63.85 C75.91,57.21 74.74,55.63 75.64,54.20 C76.23,53.27 77.34,52.42 78.11,52.32 C87.70,51.05 89.08,50.14 92.87,42.55 C95.00,38.28 95.03,37.95 93.43,34.79 C89.15,26.32 84.83,23.97 73.80,24.10 C63.82,24.22 60.63,24.99 60.16,27.40 C59.56,30.52 61.60,31.29 69.89,31.09 C82.04,30.80 87.79,34.64 84.56,40.89 C82.45,44.96 76.21,46.95 67.65,46.26 C62.20,45.82 60.93,46.01 60.43,47.32 C59.35,50.13 61.94,55.59 65.76,58.59 C71.28,62.91 78.32,69.26 79.81,71.25 C80.74,72.50 82.51,73.00 86.06,73.00 C88.78,73.00 91.00,72.73 91.00,72.40 ZM 216.75 32.22 C201.88,32.46 191.48,33.05 189.85,33.74 C186.44,35.20 186.00,34.65 186.00,28.94 C186.00,25.55 186.45,24.04 187.58,23.61 C188.45,23.27 200.83,23.00 215.08,23.00 L 241.00 23.00 L 241.00 31.82 ZM 253.44 70.50 C251.44,74.38 251.21,74.51 245.69,74.80 C241.59,75.02 240.00,74.74 240.00,73.83 C240.00,72.70 259.65,29.22 260.69,28.03 C263.21,25.17 263.41,45.00 260.94,52.74 C259.72,56.59 259.76,57.10 261.38,58.29 C262.58,59.16 263.06,60.58 262.84,62.55 C262.55,65.07 261.99,65.57 259.01,66.00 C256.16,66.41 255.13,67.24 253.44,70.50 ZM 159.00 64.00 L 159.00 75.00 L 124.09 75.00 L 123.45 71.59 C123.10,69.71 123.11,67.23 123.47,66.09 C124.11,64.08 124.77,64.00 141.57,64.00 ZM 159.10 23.00 L 158.50 33.50 L 141.97 33.77 C124.10,34.07 123.00,33.79 123.00,28.88 C123.00,28.78 123.00,28.68 123.00,28.58 C123.00,26.81 123.00,25.60 123.56,24.78 C124.77,23.00 128.60,23.00 140.69,23.00 C141.01,23.00 141.33,23.00 141.66,23.00 ZM 238.00 30.00 C240.77,28.52 240.50,26.14 237.43,24.98 C234.68,23.93 193.98,23.63 190.25,24.63 C188.60,25.07 188.00,25.98 188.00,28.01 L 188.00 30.78 L 212.00 30.93 C227.43,31.02 236.71,30.69 238.00,30.00 ZM 251.26 68.75 C252.58,65.93 253.62,65.00 255.44,65.00 C260.02,65.00 262.31,60.10 258.42,58.61 C256.51,57.87 256.63,56.09 259.07,49.04 C261.15,43.03 261.35,36.93 259.50,36.33 C258.49,36.01 255.00,41.31 255.00,43.18 C255.00,44.93 248.60,58.81 244.81,65.29 C240.93,71.91 241.09,73.20 245.75,72.81 C248.98,72.54 249.74,71.98 251.26,68.75 ZM 144.50 42.50 L 144.50 53.50 L 134.37 53.78 C123.06,54.10 123.00,54.07 123.00,46.94 C123.00,42.16 124.02,41.79 136.00,42.20 ZM 157.46 70.31 C157.82,68.88 157.70,67.30 157.21,66.81 C156.51,66.11 133.52,65.45 126.25,65.92 C124.79,66.01 124.56,71.16 125.95,72.55 C126.49,73.09 133.30,73.37 141.85,73.20 L 156.81 72.90 ZM 157.33 29.83 C159.52,26.37 157.45,25.01 149.78,24.86 C145.78,24.78 139.19,24.59 135.14,24.43 C131.09,24.28 127.15,24.39 126.39,24.68 C124.93,25.24 124.46,30.13 125.74,31.41 C126.15,31.81 133.20,31.98 141.41,31.77 C153.58,31.46 156.53,31.11 157.33,29.83 ZM 207.50 65.50 L 208.11 75.00 L 198.80 74.97 C187.07,74.93 186.00,74.35 186.00,67.98 C186.00,64.06 186.30,63.18 187.48,63.63 C188.29,63.94 193.12,64.49 198.23,64.85 ZM 142.19 48.50 C142.41,46.57 142.15,44.55 141.60,44.00 C140.17,42.57 126.66,42.74 125.20,44.20 C123.43,45.97 123.74,49.75 125.75,50.92 C126.71,51.48 130.71,51.95 134.64,51.97 L 141.78 52.00 ZM 205.50 70.50 C205.50,67.51 205.49,67.50 198.33,66.86 C194.39,66.51 190.68,65.92 190.08,65.55 C189.46,65.17 188.56,66.04 187.98,67.56 C186.50,71.44 188.18,72.84 194.83,73.28 C205.08,73.97 205.50,73.86 205.50,70.50 Z" fill="rgb(220,233,229)"/>
<path d="M 94.67 72.60 C92.44,69.89 83.14,60.95 78.57,57.21 C76.03,55.13 76.75,54.00 80.60,54.00 C83.01,54.00 85.40,53.41 87.55,52.32 C86.34,52.99 85.01,53.51 83.59,53.87 C81.07,54.51 79.00,55.46 79.00,55.98 C79.00,56.50 82.42,60.21 86.59,64.21 C90.13,67.61 93.43,71.05 94.67,72.60 ZM 261.32 26.09 C263.27,22.10 263.50,44.50 261.63,49.94 C263.34,41.09 262.94,25.47 260.69,28.03 C259.68,29.18 241.16,70.12 240.05,73.61 C241.06,70.45 256.25,36.46 261.32,26.09 ZM 93.85 30.31 C96.39,34.63 96.57,39.62 94.89,43.93 C96.17,39.58 95.84,33.91 93.85,30.31 ZM 262.87 61.18 C262.78,59.94 262.30,58.99 261.45,58.34 C261.48,58.35 261.52,58.37 261.56,58.39 C262.46,58.73 262.88,59.61 262.87,61.18 ZM 84.83 23.83 C88.87,24.66 91.02,26.24 93.04,29.06 C90.95,26.23 88.81,24.66 84.83,23.83 ZM 260.09 56.20 C260.12,56.67 260.23,57.07 260.41,57.40 C260.17,57.07 260.07,56.70 260.09,56.20 ZM 262.03 64.96 C261.51,65.54 260.62,65.77 259.01,66.00 C260.59,65.77 261.50,65.52 262.03,64.96 Z" fill="rgb(232,241,238)"/>
<path d="M 254.46 72.83 L 252.50 76.50 L 244.91 76.79 C235.79,77.14 233.76,75.84 236.99,71.73 C238.10,70.33 239.00,68.82 239.00,68.37 C239.00,67.92 241.20,63.04 243.89,57.53 C246.58,52.01 251.17,42.33 254.10,36.00 C260.56,22.03 260.60,21.97 263.87,22.12 C265.57,22.19 265.88,22.39 264.75,22.69 C263.21,23.09 263.00,24.56 263.00,35.12 C263.00,43.85 263.41,47.89 264.51,50.02 C265.86,52.63 265.86,52.88 264.51,52.37 C263.46,51.96 263.00,52.42 263.00,53.89 C263.00,55.13 263.64,56.00 264.56,56.00 C265.97,56.00 265.97,56.21 264.56,58.22 C262.78,60.76 262.51,65.11 264.03,66.63 C264.74,67.34 264.67,67.71 263.78,67.82 C257.93,68.50 256.32,69.37 254.46,72.83 ZM 159.75 34.79 C159.02,35.39 150.68,35.96 139.83,36.16 L 121.15 36.50 L 121.70 31.84 C122.01,29.28 121.79,25.83 121.21,24.18 C120.28,21.51 120.40,21.13 122.33,20.61 C123.53,20.29 132.27,20.02 141.77,20.01 L 159.05 20.00 L 160.02 22.57 C161.40,26.19 161.24,33.56 159.75,34.79 ZM 159.75 75.78 C158.59,76.73 127.34,77.90 122.32,77.19 C120.36,76.91 120.25,76.59 121.20,73.85 C121.78,72.19 122.00,68.28 121.68,65.16 C121.36,62.05 121.42,60.17 121.80,61.00 C122.38,62.23 125.79,62.57 141.00,62.88 C153.21,63.12 159.75,63.63 160.23,64.38 C161.45,66.24 161.09,74.68 159.75,75.78 ZM 95.11 73.21 C95.04,73.07 94.89,72.87 94.67,72.60 C93.43,71.05 90.13,67.61 86.59,64.21 C82.42,60.21 79.00,56.50 79.00,55.98 C79.00,55.46 81.07,54.51 83.59,53.87 C85.01,53.51 86.34,52.99 87.55,52.32 C89.71,51.24 91.62,49.67 93.09,47.71 C93.87,46.68 94.47,45.38 94.89,43.93 C96.57,39.62 96.39,34.63 93.85,30.31 C93.67,29.98 93.48,29.67 93.27,29.37 C93.19,29.27 93.12,29.16 93.04,29.06 C91.02,26.24 88.87,24.66 84.83,23.83 L 84.83 23.83 C81.79,23.20 77.68,23.00 71.71,23.00 C62.31,23.00 59.07,23.10 58.34,25.15 C57.99,23.62 57.40,22.55 56.50,21.78 C54.60,20.15 55.21,20.06 69.41,20.03 C83.55,20.00 84.55,20.13 88.60,22.50 C95.19,26.37 97.00,29.60 97.00,37.50 C97.00,47.64 92.91,54.27 85.78,55.69 C84.25,56.00 83.00,56.61 83.00,57.06 C83.00,57.51 86.36,60.92 90.47,64.64 C98.65,72.05 99.86,73.90 97.62,75.54 C96.80,76.14 92.28,76.73 87.58,76.86 L 79.03 77.10 L 71.76 70.55 C71.27,70.10 70.79,69.67 70.34,69.26 C61.23,61.04 59.20,59.21 58.43,59.64 C58.17,59.79 58.05,60.19 57.86,60.69 C57.36,61.93 57.12,61.33 57.07,58.75 C57.03,56.69 57.45,55.00 58.00,55.00 C58.55,55.00 58.93,52.57 58.86,49.50 C58.79,46.47 58.35,44.00 57.87,44.00 C57.39,44.00 57.00,43.44 57.00,42.75 C57.00,41.82 59.12,41.59 65.16,41.83 C76.01,42.27 80.00,41.49 80.00,38.93 C80.00,36.13 76.24,35.00 66.98,35.00 C60.53,35.00 58.91,35.32 58.08,36.75 C57.21,38.25 57.06,38.10 57.03,35.75 C57.01,34.24 57.43,33.00 57.95,33.00 C58.34,33.00 58.62,31.86 58.70,30.22 L 59.22 33.00 L 67.96 33.00 C78.46,33.00 82.78,34.27 83.62,37.61 C84.87,42.61 79.45,44.99 66.75,44.99 C66.51,44.99 66.29,44.99 66.07,44.99 C62.01,45.00 60.17,45.00 59.39,45.90 C58.75,46.65 58.82,48.01 58.95,50.49 C58.95,50.66 58.96,50.83 58.97,51.00 C59.12,54.03 60.36,55.63 68.27,63.00 C73.29,67.68 78.09,72.29 78.92,73.25 C80.13,74.64 82.06,75.00 88.26,75.00 C95.46,75.00 96.00,74.86 95.11,73.21 ZM 253.44 70.50 C255.13,67.24 256.16,66.41 259.01,66.00 C260.59,65.77 261.50,65.52 262.03,64.96 C262.51,64.47 262.70,63.73 262.84,62.55 C262.89,62.06 262.90,61.60 262.87,61.18 L 262.87 61.18 C262.88,59.61 262.46,58.73 261.56,58.39 C261.52,58.37 261.48,58.35 261.45,58.34 C261.42,58.32 261.40,58.31 261.38,58.29 C260.94,57.97 260.62,57.70 260.41,57.40 C260.23,57.07 260.12,56.67 260.09,56.20 C260.12,55.46 260.41,54.41 260.94,52.74 C261.20,51.93 261.43,50.98 261.63,49.94 C263.50,44.50 263.27,22.10 261.32,26.09 C256.25,36.46 241.06,70.45 240.05,73.61 C240.02,73.72 240.00,73.79 240.00,73.83 C240.00,74.74 241.59,75.02 245.69,74.80 C251.21,74.51 251.44,74.38 253.44,70.50 ZM 159.00 64.00 L 141.57 64.00 C124.77,64.00 124.11,64.08 123.47,66.09 C123.11,67.23 123.10,69.71 123.45,71.59 L 124.09 75.00 L 159.00 75.00 ZM 132.57 56.00 C125.13,56.00 122.02,56.36 121.72,57.25 C121.48,57.94 121.44,57.60 121.63,56.50 C121.82,55.40 121.98,51.24 121.99,47.25 L 122.00 40.00 L 132.93 40.00 C145.73,40.00 147.00,40.68 147.00,47.57 C147.00,54.88 145.08,56.00 132.57,56.00 ZM 159.10 23.00 L 141.66 23.00 C141.33,23.00 141.01,23.00 140.69,23.00 C128.60,23.00 124.77,23.00 123.56,24.78 C123.00,25.60 123.00,26.81 123.00,28.58 C123.00,28.68 123.00,28.78 123.00,28.88 C123.00,33.79 124.10,34.07 141.97,33.77 L 158.50 33.50 ZM 208.43 75.43 C207.21,76.65 204.80,76.97 197.68,76.88 C192.63,76.82 187.80,76.58 186.94,76.35 C184.20,75.61 182.17,70.86 183.16,67.50 C183.65,65.85 183.79,62.92 183.49,61.00 C183.18,59.08 183.28,57.95 183.71,58.50 C185.32,60.54 191.73,62.33 199.50,62.91 C203.90,63.23 208.06,63.86 208.75,64.31 C210.56,65.48 210.33,73.53 208.43,75.43 ZM 189.96 36.09 C188.60,36.96 186.47,37.93 185.21,38.25 C183.22,38.76 183.01,38.54 183.59,36.67 C183.96,35.48 184.65,34.35 185.13,34.17 C186.19,33.76 186.30,29.01 185.25,28.97 C184.84,28.95 183.64,27.75 182.58,26.30 C181.52,24.86 181.12,23.96 181.68,24.30 C182.25,24.65 183.75,23.83 185.03,22.47 L 187.35 20.00 L 214.05 20.00 C214.72,20.00 215.37,20.00 216.01,20.00 C235.50,20.00 241.17,20.00 242.45,22.37 C242.98,23.35 242.77,24.72 242.47,26.66 C242.44,26.82 242.42,26.98 242.39,27.14 C241.55,32.63 240.47,34.00 236.96,34.00 C233.11,34.00 230.89,34.99 231.66,36.35 C232.02,36.98 230.98,36.26 229.35,34.75 C227.45,32.99 226.29,32.33 223.66,32.10 L 241.00 31.82 L 241.00 23.00 L 215.08 23.00 C200.83,23.00 188.45,23.27 187.58,23.61 C186.45,24.04 186.00,25.55 186.00,28.94 C186.00,34.65 186.44,35.20 189.85,33.74 C191.46,33.06 201.68,32.47 216.32,32.22 C214.85,32.42 213.92,32.74 213.79,33.13 C213.55,33.86 209.72,34.30 202.91,34.38 C195.19,34.47 191.76,34.92 189.96,36.09 ZM 144.50 42.50 L 136.00 42.20 C124.02,41.79 123.00,42.16 123.00,46.94 C123.00,54.07 123.06,54.10 134.37,53.78 L 144.50 53.50 ZM 207.50 65.50 L 198.23 64.85 C193.12,64.49 188.29,63.94 187.48,63.63 C186.30,63.18 186.00,64.06 186.00,67.98 C186.00,74.35 187.07,74.93 198.80,74.97 L 208.11 75.00 ZM 113.00 77.00 C113.00,77.55 112.58,78.00 112.06,78.00 C111.54,78.00 110.84,77.55 110.50,77.00 C110.16,76.45 110.58,76.00 111.44,76.00 C112.30,76.00 113.00,76.45 113.00,77.00 Z" fill="rgb(248,251,250)"/>
<path d="M 44.44 72.78 C42.84,75.07 41.82,75.49 40.67,74.33 C40.30,73.97 40.00,62.48 40.00,48.80 C40.00,27.53 40.22,23.85 41.51,23.36 C42.34,23.04 43.69,23.33 44.51,24.01 C46.77,25.88 46.71,69.55 44.44,72.78 ZM 269.97 64.25 C269.99,64.66 269.33,65.00 268.50,65.00 C267.54,65.00 267.00,64.03 267.00,62.31 C267.00,59.73 267.06,59.70 268.47,61.56 C269.28,62.63 269.95,63.84 269.97,64.25 Z" fill="rgb(245,229,218)"/>
<path d="M 118.50 23.50 L 118.50 73.50 L 112.25 73.80 L 106.00 74.10 L 106.00 24.04 L 108.35 23.45 C109.64,23.13 112.45,23.00 114.60,23.18 ZM 44.44 72.78 C46.70,69.55 46.77,26.00 44.52,24.02 C44.53,24.03 44.54,24.03 44.55,24.04 C45.77,25.05 46.53,25.05 48.40,24.05 C49.69,23.36 51.58,22.97 52.62,23.16 C54.39,23.51 54.52,24.95 54.77,48.22 C55.02,71.31 54.92,72.97 53.20,73.89 C51.84,74.62 50.61,74.38 48.49,72.99 C45.66,71.14 45.59,71.14 44.25,73.05 C43.23,74.51 42.41,75.11 41.62,74.93 C42.44,75.11 43.29,74.43 44.44,72.78 ZM 222.55 69.55 C220.18,71.91 217.06,72.72 215.67,71.33 C215.30,70.97 215.00,63.09 215.00,53.83 C215.00,37.91 215.10,37.00 216.92,37.00 C223.36,37.00 225.00,40.76 225.00,55.50 C225.00,66.47 224.87,67.22 222.55,69.55 ZM 269.97 64.25 C269.95,63.84 269.28,62.63 268.47,61.56 C268.17,61.16 267.93,60.85 267.74,60.63 C268.22,59.85 268.93,58.97 269.86,57.99 C273.10,54.59 274.60,54.33 277.82,56.59 C280.66,58.57 286.24,70.20 285.41,72.38 C284.77,74.05 281.00,74.68 281.00,73.12 C281.00,72.63 280.15,72.01 279.11,71.74 C278.08,71.47 276.61,69.95 275.86,68.37 C274.76,66.08 273.73,65.44 270.74,65.19 C270.13,65.14 269.59,65.05 269.13,64.93 C269.63,64.81 269.98,64.55 269.97,64.25 ZM 271.64 43.50 C268.65,46.49 267.00,44.68 267.00,38.42 C267.00,33.79 269.56,33.86 270.43,38.50 C270.80,40.42 271.55,42.00 272.12,42.00 C272.68,42.00 272.47,42.67 271.64,43.50 ZM 267.00 62.46 C267.01,62.86 267.05,63.22 267.12,63.54 C266.98,63.22 266.94,62.86 267.00,62.46 Z" fill="rgb(252,230,216)"/>
<path d="M 286.42 74.39 C284.56,75.11 280.06,75.07 278.20,74.32 C277.48,74.03 275.79,72.04 274.44,69.90 C272.75,67.22 271.26,66.00 269.69,66.00 C265.32,66.00 263.48,61.66 266.55,58.59 C269.01,56.14 269.12,52.93 266.89,49.33 C265.76,47.50 265.21,45.99 265.67,45.98 C266.13,45.98 265.83,45.53 265.00,45.00 C264.17,44.47 263.95,44.02 264.50,44.02 C265.08,44.01 265.43,41.31 265.34,37.61 C265.18,31.48 265.27,31.23 267.54,31.36 C269.46,31.47 270.44,32.74 272.69,38.00 C274.21,41.58 275.33,45.11 275.16,45.85 C274.98,46.69 275.33,46.92 276.09,46.45 C276.84,45.98 277.05,46.11 276.64,46.78 C276.27,47.37 277.35,50.19 279.03,53.05 C282.70,59.28 288.00,70.78 288.00,72.53 C288.00,73.22 287.29,74.06 286.42,74.39 ZM 267.00 62.46 C266.94,62.86 266.98,63.22 267.12,63.54 C267.32,64.49 267.80,65.00 268.50,65.00 C268.72,65.00 268.94,64.97 269.13,64.93 C269.59,65.05 270.13,65.14 270.74,65.19 C273.73,65.44 274.76,66.08 275.86,68.37 C276.61,69.95 278.08,71.47 279.11,71.74 C280.15,72.01 281.00,72.63 281.00,73.12 C281.00,74.68 284.77,74.05 285.41,72.38 C286.24,70.20 280.66,58.57 277.82,56.59 C274.60,54.33 273.10,54.59 269.86,57.99 C268.93,58.97 268.22,59.85 267.74,60.63 C267.04,59.83 267.00,60.28 267.00,62.31 C267.00,62.36 267.00,62.41 267.00,62.46 ZM 271.64 43.50 C272.47,42.67 272.68,42.00 272.12,42.00 C271.55,42.00 270.80,40.42 270.43,38.50 C269.56,33.86 267.00,33.79 267.00,38.42 C267.00,44.68 268.65,46.49 271.64,43.50 Z" fill="rgb(251,238,226)"/>
<path d="M 55.96 76.07 C55.40,77.13 54.16,77.91 53.21,77.80 C52.27,77.70 48.47,77.45 44.76,77.26 C38.77,76.95 37.95,76.66 37.46,74.69 C36.59,71.24 37.39,22.27 38.33,21.33 C38.73,20.93 46.86,20.49 57.20,20.27 C55.19,20.49 55.50,20.92 56.50,21.78 C57.40,22.55 57.99,23.62 58.34,25.15 C57.98,26.14 58.20,27.56 58.59,29.63 L 58.70 30.22 C58.62,31.86 58.34,33.00 57.95,33.00 C57.43,33.00 57.01,34.24 57.03,35.75 C57.06,38.10 57.21,38.25 58.08,36.75 C58.38,36.23 58.79,35.86 59.48,35.60 C58.83,35.86 58.47,36.23 58.22,36.75 C57.48,38.27 57.39,39.55 57.88,41.50 C57.91,41.63 58.47,41.73 59.38,41.80 C57.68,41.92 57.00,42.22 57.00,42.75 C57.00,43.44 57.39,44.00 57.87,44.00 C58.35,44.00 58.79,46.47 58.86,49.50 C58.93,52.57 58.55,55.00 58.00,55.00 C57.45,55.00 57.03,56.69 57.07,58.75 C57.12,61.33 57.36,61.93 57.86,60.69 C57.46,61.68 57.11,65.12 57.07,68.32 C57.03,71.51 56.53,75.00 55.96,76.07 ZM 113.00 77.00 C113.00,76.45 112.30,76.00 111.44,76.00 C110.58,76.00 110.16,76.45 110.50,77.00 C110.61,77.18 110.77,77.36 110.94,77.50 C105.12,77.40 104.78,76.88 104.17,75.62 C103.59,74.43 102.94,62.52 102.68,48.31 C102.26,25.77 102.39,22.96 103.87,21.62 C105.66,20.00 105.25,20.02 138.25,19.94 L 159.01 19.89 L 159.05 20.00 L 141.77 20.01 C132.27,20.02 123.53,20.29 122.33,20.61 C120.40,21.13 120.28,21.51 121.21,24.18 C121.79,25.83 122.01,29.28 121.70,31.84 L 121.15 36.50 L 126.62 36.40 C122.46,36.65 122.00,37.11 122.00,38.15 C122.00,39.84 122.97,40.00 132.93,40.00 L 122.00 40.00 L 121.99 47.25 C121.98,51.24 121.82,55.40 121.63,56.50 C121.44,57.60 121.48,57.94 121.72,57.25 C121.81,56.97 122.20,56.74 122.91,56.55 C122.19,56.82 121.92,57.20 121.77,57.77 C120.92,61.04 121.17,62.05 129.01,62.51 C123.75,62.22 122.18,61.80 121.80,61.00 C121.42,60.17 121.36,62.05 121.68,65.16 C122.00,68.28 121.78,72.19 121.20,73.85 C120.25,76.59 120.36,76.91 122.32,77.19 C123.03,77.29 124.26,77.35 125.85,77.39 C120.06,77.48 115.89,77.54 112.86,77.52 C112.95,77.37 113.00,77.19 113.00,77.00 ZM 216.75 32.22 L 223.66 32.10 C226.29,32.33 227.45,32.99 229.35,34.75 C230.98,36.26 232.02,36.98 231.66,36.35 C231.31,35.74 231.57,35.20 232.31,34.80 C231.58,35.20 231.35,35.74 231.73,36.35 C232.12,36.98 232.31,45.38 232.14,55.00 C231.90,68.21 231.84,73.25 229.40,75.05 C227.89,76.16 225.47,76.04 221.54,75.84 L 221.29 75.83 C217.32,75.63 213.62,75.02 213.07,74.47 C212.49,73.89 212.01,65.46 211.92,54.22 L 211.76 34.98 L 209.27 34.35 C209.03,34.29 208.76,34.24 208.46,34.20 C211.78,33.99 213.62,33.63 213.79,33.13 C213.92,32.74 214.85,32.42 216.32,32.22 C216.46,32.22 216.61,32.22 216.75,32.22 ZM 264.44 67.58 C264.61,67.39 264.48,67.08 264.03,66.63 C262.51,65.11 262.78,60.76 264.56,58.22 C265.97,56.21 265.97,56.00 264.56,56.00 C264.16,56.00 263.82,55.84 263.55,55.56 C263.82,55.84 264.17,56.00 264.57,56.00 C265.50,56.00 266.01,55.32 265.82,54.33 C265.63,53.35 265.16,52.70 264.65,52.42 C265.86,52.86 265.81,52.54 264.51,50.02 C263.41,47.89 263.00,43.85 263.00,35.12 C263.00,24.56 263.21,23.09 264.75,22.69 C264.96,22.64 265.11,22.58 265.22,22.54 C268.49,23.60 272.00,26.59 272.00,29.49 C272.00,30.76 273.35,34.36 275.00,37.50 C276.65,40.64 278.00,43.59 278.00,44.06 C278.00,44.53 280.22,49.55 282.94,55.21 C285.66,60.87 288.46,67.66 289.17,70.30 C290.77,76.32 289.74,77.25 282.13,76.70 C277.38,76.36 276.40,75.89 273.63,72.60 C271.22,69.74 267.34,67.76 264.44,67.58 ZM 44.55 24.04 C44.54,24.03 44.53,24.03 44.52,24.02 C44.52,24.02 44.52,24.01 44.51,24.01 C43.69,23.33 42.34,23.04 41.51,23.36 C40.22,23.85 40.00,27.53 40.00,48.80 C40.00,62.48 40.30,73.97 40.67,74.33 C40.99,74.66 41.30,74.86 41.62,74.93 C42.41,75.11 43.23,74.51 44.25,73.05 C45.59,71.14 45.66,71.14 48.49,72.99 C50.61,74.38 51.84,74.62 53.20,73.89 C54.92,72.97 55.02,71.31 54.77,48.22 C54.52,24.95 54.39,23.51 52.62,23.16 C51.58,22.97 49.69,23.36 48.40,24.05 C46.53,25.05 45.77,25.05 44.55,24.04 ZM 188.55 61.03 C186.16,60.30 184.44,59.43 183.71,58.50 C183.28,57.95 183.18,59.08 183.49,61.00 C183.79,62.92 183.65,65.85 183.16,67.50 C182.66,69.22 182.94,71.30 183.71,73.02 C182.85,71.76 181.86,71.54 179.38,71.82 C174.62,72.38 171.63,69.47 167.26,60.00 C164.25,53.49 163.86,51.77 164.30,47.00 C165.02,39.23 170.04,28.57 174.20,25.97 C176.11,24.78 178.65,24.07 180.24,24.29 C180.65,24.34 181.05,24.35 181.43,24.33 C181.44,24.58 181.86,25.32 182.58,26.30 C183.64,27.75 184.84,28.95 185.25,28.97 C186.30,29.01 186.19,33.76 185.13,34.17 C184.65,34.35 183.96,35.48 183.59,36.67 C183.03,38.47 183.21,38.74 184.99,38.31 C182.64,39.70 178.00,45.78 178.00,47.82 C178.00,48.89 179.46,51.99 181.25,54.70 C183.41,57.97 185.33,59.85 188.55,61.03 ZM 118.50 23.50 L 114.60 23.18 C112.45,23.00 109.64,23.13 108.35,23.45 L 106.00 24.04 L 106.00 74.10 L 112.25 73.80 L 118.50 73.50 ZM 286.42 74.39 C287.29,74.06 288.00,73.22 288.00,72.53 C288.00,70.78 282.70,59.28 279.03,53.05 C277.35,50.19 276.27,47.37 276.64,46.78 C277.05,46.11 276.84,45.98 276.09,46.45 C275.33,46.92 274.98,46.69 275.16,45.85 C275.33,45.11 274.21,41.58 272.69,38.00 C270.44,32.74 269.46,31.47 267.54,31.36 C265.27,31.23 265.18,31.48 265.34,37.61 C265.43,41.31 265.08,44.01 264.50,44.02 C263.95,44.02 264.17,44.47 265.00,45.00 C265.83,45.53 266.13,45.98 265.67,45.98 C265.21,45.99 265.76,47.50 266.89,49.33 C269.12,52.93 269.01,56.14 266.55,58.59 C263.48,61.66 265.32,66.00 269.69,66.00 C271.26,66.00 272.75,67.22 274.44,69.90 C275.79,72.04 277.48,74.03 278.20,74.32 C280.06,75.07 284.56,75.11 286.42,74.39 ZM 222.55 69.55 C224.87,67.22 225.00,66.47 225.00,55.50 C225.00,40.76 223.36,37.00 216.92,37.00 C215.10,37.00 215.00,37.91 215.00,53.83 C215.00,63.09 215.30,70.97 215.67,71.33 C217.06,72.72 220.18,71.91 222.55,69.55 ZM 73.82 20.03 L 84.14 19.89 L 88.51 22.45 C84.99,20.40 83.74,20.06 73.82,20.03 ZM 189.96 36.09 C191.24,35.26 193.34,34.79 197.21,34.56 C193.72,35.00 190.60,35.68 189.47,36.43 C188.30,37.20 186.86,37.85 186.05,37.99 C187.29,37.55 188.87,36.78 189.96,36.09 ZM 258.17 69.02 C259.14,68.60 260.34,68.31 261.93,68.06 C261.91,68.08 261.88,68.10 261.85,68.11 C261.11,68.58 259.60,68.98 258.50,68.99 C258.39,68.99 258.28,69.00 258.17,69.02 ZM 261.94 22.24 C261.02,22.54 260.25,23.41 258.99,25.75 C259.67,24.40 260.15,23.50 260.33,23.25 C260.72,22.72 261.28,22.39 261.94,22.24 ZM 98.44 74.67 C98.88,73.84 98.51,72.78 97.01,71.02 C97.86,71.94 98.41,72.62 98.52,72.93 C98.79,73.61 98.77,74.19 98.44,74.67 ZM 159.75 34.79 C159.77,34.77 159.79,34.76 159.81,34.74 C159.78,34.77 159.75,34.79 159.72,34.81 C159.17,35.28 155.00,35.67 148.58,35.90 C154.91,35.63 159.24,35.21 159.75,34.79 ZM 69.23 41.94 C71.77,41.89 74.20,41.79 75.88,41.64 C74.23,41.88 72.05,41.97 69.23,41.94 ZM 181.68 24.30 C182.94,24.15 184.05,23.51 185.16,22.33 L 185.03 22.47 C183.75,23.83 182.25,24.65 181.68,24.30 ZM 199.50 62.86 C203.90,63.21 208.06,63.86 208.75,64.31 C208.06,63.86 203.90,63.23 199.50,62.91 C198.02,62.80 196.59,62.64 195.23,62.45 C196.51,62.61 197.93,62.74 199.50,62.86 ZM 74.94 35.47 C72.82,35.19 69.82,35.00 66.98,35.00 C70.33,35.00 72.95,35.15 74.94,35.47 ZM 79.74 39.94 C80.25,38.94 79.93,37.67 78.80,36.75 C79.62,37.32 80.00,38.04 80.00,38.93 C80.00,39.30 79.92,39.64 79.74,39.94 ZM 189.25 76.59 C191.32,76.73 194.46,76.84 197.68,76.88 C193.77,76.83 191.11,76.77 189.25,76.59 ZM 94.85 76.26 C93.09,76.59 90.69,76.78 87.58,76.86 C90.29,76.79 92.94,76.56 94.85,76.26 ZM 159.75 75.78 C160.17,75.44 160.49,74.39 160.70,73.05 C160.49,74.39 160.17,75.44 159.75,75.78 C159.42,76.05 157.16,76.32 153.38,76.55 C156.95,76.31 159.44,76.03 159.75,75.78 ZM 95.90 29.82 C96.70,31.85 97.00,34.29 97.00,37.50 C97.00,34.29 96.70,31.85 95.90,29.82 Z" fill="rgb(252,249,244)"/>
<path d="M 0.00 43.50 L 0.00 0.00 L 167.00 0.00 L 334.00 0.00 L 334.00 43.50 L 334.00 87.00 L 167.00 87.00 L 0.00 87.00 L 0.00 43.50 ZM 55.96 76.07 C56.53,75.00 57.03,71.51 57.07,68.32 C57.11,65.12 57.46,61.68 57.86,60.69 C58.67,58.63 58.12,58.24 71.76,70.55 L 79.03 77.10 L 87.58 76.86 C96.46,76.62 99.52,75.52 98.52,72.93 C98.20,72.09 94.58,68.36 90.47,64.64 C86.36,60.92 83.00,57.51 83.00,57.06 C83.00,56.61 84.25,56.00 85.78,55.69 C92.91,54.27 97.00,47.64 97.00,37.50 C97.00,29.57 95.19,26.37 88.51,22.45 L 84.14 19.89 L 61.65 20.20 C49.28,20.36 38.79,20.87 38.33,21.33 C37.39,22.27 36.59,71.24 37.46,74.69 C37.95,76.66 38.77,76.95 44.76,77.26 C48.47,77.45 52.27,77.70 53.21,77.80 C54.16,77.91 55.40,77.13 55.96,76.07 ZM 159.75 75.78 C161.09,74.68 161.45,66.24 160.23,64.38 C159.75,63.63 153.21,63.12 141.00,62.88 C121.50,62.48 120.60,62.24 121.77,57.77 C122.18,56.22 123.53,56.00 132.62,56.00 C145.08,56.00 147.00,54.87 147.00,47.57 C147.00,40.68 145.73,40.00 132.93,40.00 C122.97,40.00 122.00,39.84 122.00,38.15 C122.00,36.43 123.25,36.29 140.22,36.09 C151.26,35.96 158.95,35.46 159.72,34.81 C161.24,33.55 161.41,26.21 160.00,22.51 L 159.01 19.89 L 138.25 19.94 C105.25,20.02 105.66,20.00 103.87,21.62 C102.39,22.96 102.26,25.77 102.68,48.31 C102.94,62.52 103.59,74.43 104.17,75.62 C105.19,77.73 105.45,77.75 131.85,77.28 C147.91,77.00 159.00,76.40 159.75,75.78 ZM 208.43 75.43 C210.33,73.53 210.56,65.48 208.75,64.31 C208.06,63.86 203.90,63.21 199.50,62.86 C188.25,61.97 185.13,60.58 181.25,54.70 C179.46,51.99 178.00,48.89 178.00,47.82 C178.00,45.51 183.93,38.04 185.79,38.02 C186.49,38.01 188.15,37.29 189.47,36.43 C192.08,34.71 205.23,33.34 209.27,34.35 L 211.76 34.98 L 211.92 54.22 C212.01,65.46 212.49,73.89 213.07,74.47 C213.62,75.02 217.32,75.63 221.29,75.83 C231.84,76.36 231.75,76.53 232.14,55.00 C232.31,45.38 232.12,36.98 231.73,36.35 C230.87,34.99 233.08,34.00 236.96,34.00 C240.47,34.00 241.55,32.63 242.39,27.14 C243.51,19.83 244.17,20.00 214.05,20.00 C187.40,20.00 187.34,20.00 185.16,22.33 C183.65,23.94 182.14,24.54 180.24,24.29 C178.65,24.07 176.11,24.78 174.20,25.97 C170.04,28.57 165.02,39.23 164.30,47.00 C163.86,51.77 164.25,53.49 167.26,60.00 C171.63,69.47 174.62,72.38 179.38,71.82 C182.22,71.49 183.11,71.84 184.09,73.66 C185.62,76.52 186.56,76.74 197.68,76.88 C204.80,76.97 207.21,76.65 208.43,75.43 ZM 254.50 72.75 C255.78,70.36 257.22,69.00 258.50,68.99 C259.60,68.98 261.11,68.58 261.85,68.11 C264.44,66.47 270.37,68.73 273.63,72.60 C276.40,75.89 277.38,76.36 282.13,76.70 C289.74,77.25 290.77,76.32 289.17,70.30 C288.46,67.66 285.66,60.87 282.94,55.21 C280.22,49.55 278.00,44.53 278.00,44.06 C278.00,43.59 276.65,40.64 275.00,37.50 C273.35,34.36 272.00,30.76 272.00,29.49 C272.00,24.79 262.80,19.87 260.33,23.25 C259.83,23.94 257.02,29.67 254.10,36.00 C251.17,42.33 246.58,52.01 243.89,57.53 C241.20,63.04 239.00,67.92 239.00,68.37 C239.00,68.82 238.10,70.33 236.99,71.73 C233.76,75.84 235.79,77.14 244.91,76.79 L 252.50 76.50 L 254.50 72.75 ZM 57.88 41.50 C57.39,39.55 57.48,38.27 58.22,36.75 C58.92,35.30 60.44,35.00 66.97,35.00 C71.31,35.00 76.02,35.44 77.43,35.98 C80.67,37.20 80.86,40.54 77.75,41.37 C75.04,42.10 58.05,42.21 57.88,41.50 ZM 263.00 53.92 C263.00,51.48 265.34,51.82 265.82,54.33 C266.01,55.32 265.50,56.00 264.57,56.00 C263.65,56.00 263.00,55.15 263.00,53.92 Z" fill="rgb(254,254,254)"/>
</g>
</svg>

