<svg width="119" height="25" viewBox="0 0 119 25" fill="none" xmlns="http://www.w3.org/2000/svg">
<g opacity="0.3">
<path d="M61.1377 8.51137V16.0103C60.8901 15.2055 60.7236 14.3723 60.6465 13.5066V11.011C60.7236 10.1453 60.8941 9.31208 61.1377 8.51137Z" fill="#FC5E00"/>
<path d="M62.0714 6.25558V18.258C61.8887 17.9328 61.7264 17.5995 61.5843 17.2581V7.25138C61.7304 6.90997 61.8928 6.58074 62.0714 6.25558Z" fill="#FC5E00"/>
<path d="M63.0093 4.77207V19.7456C62.8347 19.522 62.6683 19.2823 62.5181 19.0465V5.47117C62.6724 5.23542 62.8388 4.99562 63.0093 4.77207Z" fill="#FC5E00"/>
<path d="M63.9431 3.65027V20.8633C63.7725 20.6926 63.6061 20.5057 63.4518 20.3227V4.19084C63.6102 4.00794 63.7766 3.82097 63.9431 3.65027Z" fill="#FC5E00"/>
<path d="M64.8767 21.7534C64.7062 21.6152 64.5398 21.4689 64.3855 21.3185V3.19504C64.5438 3.04465 64.7103 2.89833 64.8767 2.76014V21.7534Z" fill="#FC5E00"/>
<path d="M65.8149 2.04072V9.40958C65.5835 9.90545 65.4211 10.4298 65.3237 10.9704V2.39434C65.4861 2.2724 65.6525 2.15859 65.8149 2.04072Z" fill="#FC5E00"/>
<path d="M65.3193 13.5472C65.4168 14.0878 65.5832 14.6121 65.8106 15.1121V22.4728C65.6441 22.359 65.4777 22.2453 65.3193 22.1192V13.5472Z" fill="#FC5E00"/>
<path d="M66.7484 1.45952V7.85294C66.5657 8.07242 66.4033 8.30003 66.2571 8.53577V1.7481C66.4195 1.64649 66.586 1.553 66.7484 1.45952Z" fill="#FC5E00"/>
<path d="M66.2571 15.9778C66.4073 16.2095 66.5697 16.4411 66.7483 16.6606V23.05C66.5819 22.9606 66.4154 22.8671 66.2571 22.7614V15.9778Z" fill="#FC5E00"/>
<path d="M67.6861 1.0612V7.01972C67.5116 7.17417 67.3492 7.33268 67.1908 7.49932V1.28474C67.3532 1.20752 67.5197 1.13436 67.6861 1.0612Z" fill="#FC5E00"/>
<path d="M67.6861 17.6361V23.5134C67.5156 23.4442 67.3532 23.367 67.1908 23.2817V17.1565C67.3492 17.3231 67.5116 17.4817 67.6861 17.6361Z" fill="#FC5E00"/>
<path d="M95.831 0V4.65454L78.658 4.71267C78.658 4.71267 74.9894 4.71267 74.9146 4.71267C72.8075 4.75004 70.8721 5.36456 69.3325 6.38183V0.693406C70.6653 0.244976 72.1037 0 73.5993 0H95.831Z" fill="#75B49C"/>
<path d="M79.9776 20.2873V25H73.5993C72.1037 25 70.6653 24.755 69.3325 24.3066V18.6223C70.9073 19.652 72.8955 20.2749 75.0641 20.2873H79.9776Z" fill="#75B49C"/>
<path d="M83.7387 6.1849H83.2301V24.2924H83.7387V6.1849Z" fill="#FC5E00"/>
<path d="M84.7268 6.1889H84.2182V24.2924H84.7268V6.1889Z" fill="#FC5E00"/>
<path d="M85.7148 6.18491H85.2062V24.3004H85.7148V6.18491Z" fill="#FC5E00"/>
<path d="M86.7028 6.1889H86.1942V24.2964H86.7028V6.1889Z" fill="#FC5E00"/>
<path d="M87.6908 6.18491H87.1822V24.2964H87.6908V6.18491Z" fill="#FC5E00"/>
<path d="M88.679 6.1889H88.1704V24.3004H88.679V6.1889Z" fill="#FC5E00"/>
<path d="M89.6711 6.18491H89.1625V24.3004H89.6711V6.18491Z" fill="#FC5E00"/>
<path d="M90.6591 6.18491H90.1505V24.3045H90.6591V6.18491Z" fill="#FC5E00"/>
<path d="M0.539564 0H0V24.9917H0.539564V0Z" fill="#FC5E00"/>
<path d="M1.58765 1.52685e-05H1.04809V25H1.58765V1.52685e-05Z" fill="#FC5E00"/>
<path d="M1.67612 0.00415609H1.13657V24.9834H1.67612V0.00415609Z" fill="#FC5E00"/>
<path d="M2.72438 0.00829805H2.18482V24.9834H2.72438V0.00829805Z" fill="#FC5E00"/>
<path d="M3.77248 1.52685e-05H3.23291V24.9917H3.77248V1.52685e-05Z" fill="#FC5E00"/>
<path d="M4.82073 0.00829805H4.28116V24.9875H4.82073V0.00829805Z" fill="#FC5E00"/>
<path d="M5.86888 1.52685e-05H5.32931V24.9876H5.86888V1.52685e-05Z" fill="#FC5E00"/>
<path d="M6.91697 0.00829805H6.37741V24.9959H6.91697V0.00829805Z" fill="#FC5E00"/>
<path d="M7.96522 1.52685e-05H7.42566V24.9917H7.96522V1.52685e-05Z" fill="#FC5E00"/>
<path d="M17.297 15.1221H19.9904C23.9 14.6778 26.9384 11.5139 26.9384 7.66901V7.51953C26.9384 3.3674 23.4047 1.52685e-05 19.0484 1.52685e-05H9.06648V5.00334H16.3506C19.5305 5.00334 21.0872 6.22406 21.0872 7.70223V7.72714C21.0872 9.20117 19.526 10.397 16.3506 10.397H9.06648V15.118L19.672 24.9959H27.6328L17.297 15.1221Z" fill="#75B49C"/>
<path d="M31.3245 0.00420495H30.8159V24.9834H31.3245V0.00420495Z" fill="#FC5E00"/>
<path d="M32.3167 0.0124568H31.808V24.9876H32.3167V0.0124568Z" fill="#FC5E00"/>
<path d="M33.3047 0H32.7961V24.9917H33.3047V0Z" fill="#FC5E00"/>
<path d="M34.2928 0.00830109H33.7842V24.9875H34.2928V0.00830109Z" fill="#FC5E00"/>
<path d="M35.2808 0H34.7722V24.9876H35.2808V0Z" fill="#FC5E00"/>
<path d="M36.2689 0.00830109H35.7603V24.9959H36.2689V0.00830109Z" fill="#FC5E00"/>
<path d="M37.2569 0H36.7483V24.9917H37.2569V0Z" fill="#FC5E00"/>
<path d="M38.2491 0H37.7405V25H38.2491V0Z" fill="#FC5E00"/>
<path d="M56.8882 1.90855e-07H39.8178V5.37702H56.8882V1.90855e-07Z" fill="#75B49C"/>
<path d="M56.8882 19.6811H39.8178V25H56.8882V19.6811Z" fill="#75B49C"/>
<path d="M50.1071 9.22602H39.7741V14.9311H50.1071V9.22602Z" fill="#75B49C"/>
<path fill-rule="evenodd" clip-rule="evenodd" d="M106.114 11.6052L106.165 0.13702L106.157 0L94.483 24.9959H100.695L102.409 20.7606H100.218V16.8659H103.985L106.114 11.6052Z" fill="#75B49C"/>
<path fill-rule="evenodd" clip-rule="evenodd" d="M103.985 16.8659H106.059V20.7606H102.409L103.405 18.3005L103.985 16.8659Z" fill="#75B49C"/>
<path d="M116.453 19.5524H107.42V19.0459H116.218L116.453 19.5524Z" fill="#FC5E00"/>
<path d="M108.09 1.6401H107.326L107.322 1.13354H107.851L108.09 1.6401Z" fill="#FC5E00"/>
<path d="M108.551 2.63245H107.33L107.326 2.13005H108.316L108.551 2.63245Z" fill="#FC5E00"/>
<path d="M109.007 3.6082H107.335L107.33 3.10164H108.773L109.007 3.6082Z" fill="#FC5E00"/>
<path d="M109.472 4.60473H107.339L107.335 4.09816H109.238L109.472 4.60473Z" fill="#FC5E00"/>
<path d="M109.959 5.6469H107.343L107.339 5.14034H109.724L109.959 5.6469Z" fill="#FC5E00"/>
<path d="M110.415 6.62267H107.348L107.343 6.11611H110.181L110.415 6.62267Z" fill="#FC5E00"/>
<path d="M110.88 7.61501H107.352L107.347 7.1126H110.646L110.88 7.61501Z" fill="#FC5E00"/>
<path d="M111.333 8.59078H107.356L107.352 8.08422H111.098L111.333 8.59078Z" fill="#FC5E00"/>
<path d="M111.802 9.58727H107.36L107.356 9.0807H111.563L111.802 9.58727Z" fill="#FC5E00"/>
<path d="M112.288 10.6295H107.365L107.36 10.1229H112.049L112.288 10.6295Z" fill="#FC5E00"/>
<path d="M112.741 11.6052H107.369L107.365 11.0987H112.506L112.741 11.6052Z" fill="#FC5E00"/>
<path d="M113.206 12.5976H107.77L107.565 12.0952H112.971L113.206 12.5976Z" fill="#FC5E00"/>
<path d="M113.662 13.5734H108.167L107.962 13.0668H113.423L113.662 13.5734Z" fill="#FC5E00"/>
<path d="M114.127 14.5698H108.568L108.363 14.0633H113.893L114.127 14.5698Z" fill="#FC5E00"/>
<path d="M114.614 15.612H108.99L108.785 15.1055H114.379L114.614 15.612Z" fill="#FC5E00"/>
<path d="M115.07 16.5878H109.383L109.178 16.0812H114.831L115.07 16.5878Z" fill="#FC5E00"/>
<path d="M115.535 17.5802H107.42V17.0777H115.301L115.535 17.5802Z" fill="#FC5E00"/>
<path d="M115.988 18.5559H107.42V18.0493H115.753L115.988 18.5559Z" fill="#FC5E00"/>
<path d="M116.841 20.3828H107.42V19.8763H116.606L116.841 20.3828Z" fill="#FC5E00"/>
<path d="M117.327 21.425H111.345L111.141 20.9184H117.093L117.327 21.425Z" fill="#FC5E00"/>
<path d="M117.784 22.4008H111.738L111.533 21.8942H117.549L117.784 22.4008Z" fill="#FC5E00"/>
<path d="M118.249 23.3931H112.139L111.938 22.8907H118.014L118.249 23.3931Z" fill="#FC5E00"/>
<path d="M118.706 24.3689H112.549L112.331 23.8623H118.467L118.667 24.29L118.706 24.3689Z" fill="#FC5E00"/>
<path d="M119 25H112.8L112.732 24.8588H118.932L119 25Z" fill="#FC5E00"/>
<path d="M107.633 0.664341H107.322L107.318 0.157781V0.141173L107.322 0L107.394 0.157781L107.633 0.664341Z" fill="#FC5E00"/>
<path d="M100.218 16.8659H103.985L103.405 18.3005L102.409 20.7606H100.218V16.8659Z" fill="#75B49C"/>
</g>
</svg>
