<svg width="38" height="12" viewBox="0 0 38 12" fill="none" xmlns="http://www.w3.org/2000/svg">
<path d="M34.3806 11.4631L32.8356 9.6818L31.3044 11.4631H28.082L31.2313 7.82524L28.082 4.18639H31.405L32.9654 5.9541L34.4672 4.18639H37.6737L34.5401 7.80997L37.7172 11.4631H34.3806ZM21.8945 11.4631V0H28.082V2.5551H24.5155V4.18639H28.082V6.64499H24.5155V8.90154H28.082V11.4631H21.8945Z" fill="#FF5A00"/>
<path d="M19.2834 0V4.69135H19.2544C18.6765 4.00852 17.9544 3.77044 17.1167 3.77044C15.4006 3.77044 14.1078 4.97093 13.654 6.55665C13.1363 4.80901 11.8015 3.73785 9.82257 3.73785C8.21511 3.73785 6.94624 4.47935 6.28338 5.68807V4.18621H2.96131V2.55538H6.58705V0.000549617H0V11.4631H2.96131V6.64499H5.913C5.82207 7.01548 5.77662 7.39626 5.77771 7.77841C5.77771 10.1684 7.55409 11.848 9.82206 11.848C11.7285 11.848 12.9859 10.9269 13.6503 9.2499H11.1123C10.7693 9.75469 10.5086 9.90357 9.82232 9.90357C9.02679 9.90357 8.34023 9.1897 8.34023 8.34444H13.508C13.7322 10.2432 15.171 11.8804 17.1458 11.8804C17.9976 11.8804 18.7775 11.4497 19.2542 10.7221H19.2828V11.4648H21.8939V0.000549617H19.2834V0ZM8.42259 6.67929C8.5876 5.95084 9.1368 5.47503 9.82232 5.47503C10.5772 5.47503 11.0985 5.93626 11.2353 6.67929H8.42259ZM17.6988 9.71867C16.7367 9.71867 16.1388 8.79708 16.1388 7.8345C16.1388 6.80536 16.6591 5.81671 17.6988 5.81671C18.7776 5.81671 19.2075 6.80588 19.2075 7.8345C19.2075 8.80943 18.7524 9.71867 17.6988 9.71867Z" fill="#29007C"/>
</svg>
