<svg width="34" height="23" viewBox="0 0 34 23" fill="none" xmlns="http://www.w3.org/2000/svg">
<path d="M29.9251 4.24493C30.4199 4.06681 30.6567 3.75494 30.6567 3.28148C30.6567 2.81696 30.4662 2.59149 29.9734 2.47297C29.8102 2.43371 29.6216 2.42356 28.8762 2.41391L27.9761 2.40226V3.37324V4.34422L28.8368 4.33556L29.6975 4.32689L29.9251 4.24493ZM25.2344 9.64391C25.2246 9.63407 25.2166 7.5309 25.2166 4.97021V0.314399L28.1141 0.323867C30.9696 0.333196 31.0153 0.33416 31.2728 0.390662C31.9692 0.543452 32.4315 0.77851 32.8018 1.16807C33.2227 1.61093 33.39 2.08196 33.3898 2.82371C33.3895 3.73571 33.1743 4.35338 32.6978 4.80932C32.4802 5.01748 32.2981 5.13078 32.0039 5.2409C31.8759 5.28884 31.8248 5.31776 31.8667 5.31856C31.9961 5.32106 32.2492 5.40102 32.466 5.50796C32.826 5.68549 33.0762 5.98567 33.1903 6.37695C33.2277 6.50524 33.4687 9.25887 33.4687 9.55795V9.66132H32.0496H30.6304L30.6299 9.31056C30.6289 8.61137 30.5795 7.49521 30.5414 7.31108C30.4378 6.81072 30.1395 6.51357 29.6028 6.37631C29.4138 6.32797 29.2811 6.31795 28.6793 6.30653L27.9765 6.2932L27.9697 7.97065L27.9629 9.64808L26.6075 9.65496C25.8621 9.65876 25.2442 9.6537 25.2344 9.64391ZM8.89641 4.98895V0.316575H12.3392H15.7819V1.45489V2.5932H13.7058H11.6296V3.26824V3.94329H13.6006H15.5717V4.98895V6.0346H13.6006H11.6296V6.70965V7.3847H13.7583H15.887V8.523V9.66132H12.3917H8.89641V4.98895ZM19.632 9.83403C17.71 9.6109 16.6781 8.72815 16.3543 7.03003C16.2994 6.74199 16.2981 6.672 16.2886 3.52635L16.2789 0.316575H17.6455H19.0122L19.0215 3.36752C19.03 6.15971 19.0347 6.43529 19.0767 6.617C19.2051 7.17099 19.4857 7.47709 19.9922 7.61579C20.23 7.68089 20.8349 7.67957 21.0512 7.6135C21.5391 7.4644 21.7957 7.17841 21.9214 6.64348C21.9644 6.46054 21.9688 6.20419 21.9771 3.38076L21.9862 0.316586H23.3518H24.7173V3.3581C24.7173 5.28097 24.7072 6.50045 24.6898 6.67376C24.6294 7.27753 24.4557 7.85235 24.2032 8.28432C24.0445 8.55605 23.6617 8.96769 23.3965 9.15186C22.9161 9.48549 22.34 9.69454 21.5848 9.80924C21.2022 9.86735 20.0455 9.88203 19.632 9.83403ZM3.33709 9.89955C2.26689 9.73626 1.47274 9.37975 0.890461 8.8012C0.489546 8.40286 0.247579 7.97174 0.106589 7.40454C0.0451262 7.15728 -0.0208549 6.58273 0.00626927 6.53096C0.0119897 6.52004 0.669762 6.51111 1.46798 6.51111H2.91929L2.95008 6.80291C3.01125 7.38262 3.21094 7.62122 3.75855 7.76886C4.01029 7.83672 4.58122 7.8513 4.84873 7.7967C5.40298 7.68358 5.66405 7.42486 5.66376 6.98903C5.66376 6.82873 5.65192 6.76959 5.6046 6.69086C5.45297 6.43857 5.30529 6.38234 3.40377 5.85294C2.02415 5.46884 1.44714 5.21431 0.9651 4.77721C0.702701 4.53927 0.472019 4.15071 0.377984 3.78825C0.27231 3.38095 0.286528 2.72654 0.41103 2.26741C0.480361 2.01173 0.688795 1.5866 0.848334 1.37547C1.40113 0.643917 2.32881 0.173485 3.5082 0.0266351C3.7901 -0.00846553 4.70896 -0.00898966 5.02002 0.0257518C6.86531 0.231972 7.96554 1.09673 8.22343 2.54357C8.24516 2.66549 8.26651 2.84268 8.27088 2.93732L8.27881 3.10939H6.8728H5.46679L5.45051 2.95681C5.41524 2.6262 5.27657 2.43965 4.9436 2.27491C4.69437 2.1516 4.44559 2.10916 4.06078 2.12428C3.42426 2.1493 3.15902 2.33052 3.15785 2.74121C3.15723 2.94241 3.23946 3.09731 3.41363 3.2233C3.6759 3.41302 4.00954 3.51488 5.07533 3.73061C6.70996 4.06148 7.49841 4.38073 8.04459 4.93289C8.48751 5.38066 8.68616 5.9226 8.68616 6.68316C8.68616 7.90417 8.12261 8.81837 7.02313 9.38094C6.51998 9.6384 5.84435 9.82753 5.12512 9.91228C4.64416 9.96895 3.75029 9.96259 3.33709 9.89955Z" fill="#E95128"/>
<path d="M0.359782 22.2839C0.342387 22.278 0.333496 20.6962 0.333496 17.6071V12.9392H16.7983H33.2631V17.6258V22.3124L16.8246 22.3026C7.78339 22.2972 0.37424 22.2888 0.359782 22.2839Z" fill="#BDD1EC"/>
<path d="M33.2629 12.9395H5.81348V22.2881H33.2629V12.9395Z" fill="#6D9AD3"/>
<path d="M33.263 12.9395H14.0366V22.2881H33.263V12.9395Z" fill="#1C64B0"/>
</svg>
