<svg width="29" height="34" viewBox="0 0 29 34" fill="none" xmlns="http://www.w3.org/2000/svg">
<path d="M14.3151 34C13.412 33.5962 6.18379 30.4847 3.85054 28.5441C2.59974 27.5059 1.60301 26.1953 0.936633 24.7126C0.270253 23.23 -0.0481173 21.6145 0.00588246 19.9899V3.17316C3.97485 1.06409 8.77788 0 14.3151 0C19.8523 0 24.6304 1.06994 28.6243 3.17316V19.9713C28.7359 23.265 27.319 26.4249 24.7855 28.5318C22.4905 30.3981 15.1794 33.6212 14.3395 33.9878L14.3151 34Z" fill="#FFB500"/>
<path d="M19.8211 14.16C19.8363 13.2889 20.1955 12.4592 20.8203 11.852C21.445 11.2447 22.2846 10.9093 23.1558 10.9188C24.1299 10.8676 25.092 11.1531 25.8805 11.7274V13.8864C25.2925 13.2765 24.494 12.9142 23.6472 12.8717C22.9443 12.8717 22.2101 13.1766 22.1852 14.0601C22.1602 14.9436 22.8944 15.3043 23.8214 15.8642C25.8986 17.1084 26.3098 18.1783 26.2545 19.6281C26.2466 20.5562 25.855 21.4344 25.1729 22.0692C24.4908 22.7041 23.5781 23.0175 22.6527 22.9511C21.6885 22.9431 20.7439 22.6791 19.9151 22.1861V19.9092C20.5719 20.5033 21.4086 20.8603 22.292 20.9233C22.6819 20.9743 23.0745 20.8489 23.3619 20.5796C23.6493 20.3102 23.8028 19.9283 23.7784 19.5357C23.7784 18.7579 23.3178 18.3287 22.2293 17.6694C20.1824 16.4688 19.8089 15.4796 19.8089 14.1541L19.8211 14.16ZM13.7989 13.1028C14.0753 12.9817 14.3742 12.9202 14.676 12.9222C16.1194 12.9222 16.716 14.0734 16.716 16.8603C16.716 19.6472 16.0317 20.8925 14.6005 20.8925C14.3243 20.8904 14.0507 20.8394 13.792 20.7437V13.1044L13.7989 13.1028ZM13.7989 28.0033H11.3105V11.8203C12.3156 11.2041 13.4796 10.896 14.6574 10.9369C17.6249 10.9369 19.2548 13.1894 19.2548 16.8098C19.2548 20.4303 17.6685 22.9261 14.8996 22.9261C14.5214 22.933 14.1442 22.8847 13.7797 22.7827V27.9969L13.7989 28.0033ZM2.60011 18.988V11.1988H5.08848V19.1001C5.08848 19.8029 5.25636 20.8479 6.40067 20.8479C6.80916 20.8583 7.21164 20.7479 7.55773 20.5307V11.1988H10.0461V21.9555C8.92889 22.6515 7.62892 22.9989 6.31302 22.9511C3.82464 22.9511 2.57992 21.6198 2.57992 18.9816L2.60011 18.988ZM1.35592 19.9894C1.24542 22.89 2.48642 25.6769 4.71555 27.5358C6.65673 29.1221 12.6418 31.8283 14.3275 32.5688C15.9887 31.8347 21.9615 29.1593 23.9335 27.5358C26.1648 25.6817 27.4063 22.8942 27.2931 19.9952V3.52646C18.9743 2.75615 9.13873 3.22896 1.34955 10.3711V19.9894H1.35592Z" fill="#351C15"/>
</svg>
